<svg width="80px" height="80px" viewBox="0 0 80 80" version="1.1" xmlns="http://www.w3.org/2000/svg" xmlns:xlink="http://www.w3.org/1999/xlink"><title>A8230AB1-79FA-4721-9FFC-2AE395E8B2D0@1.00x</title><desc>Taken from 500pix, who created this with sketchtool.</desc><g id="Main-Screens__8vkz6hnQ" stroke="none" stroke-width="1" fill="none" fill-rule="evenodd"><g id="Mobile-with-EC-Grid__8vkz6hnQ" transform="translate(-120.000000, -1756.000000)" fill-rule="nonzero"><g id="Licensing_Badge-Copy-2__8vkz6hnQ" transform="translate(120.000000, 1756.000000)"><circle id="Oval__8vkz6hnQ" fill="#0CEFE8" cx="40" cy="40" r="40"></circle><g id="Group__8vkz6hnQ" transform="translate(20.000000, 10.000000)" fill="#222222"><path d="M14.3333333,22.3333333 L13.3333333,27 C13.3333333,27.6666667 13.3333333,28.3333333 14,28.6666667 C14.3333333,29 14.6666667,29 15,29 C15.3333333,29 15.6666667,29 15.6666667,28.6666667 L20,26.3333333 L24.3333333,28.6666667 C25,29 25.6666667,29 26,28.6666667 C26.3333333,28.3333333 26.6666667,27.6666667 26.6666667,27 L25.6666667,22 L29.3333333,18.6666667 C29.6666667,18.3333333 30,17.6666667 29.6666667,17 C29.3333333,16.3333333 29,16 28.3333333,16 L23.3333333,15.3333333 L21,11 C20.3333333,10 18.6666667,10 18,11 L16.6666667,15.3333333 L11.6666667,16 C11,16 10.3333333,16.6666667 10.3333333,17 C10,17.6666667 10.3333333,18.3333333 10.6666667,19 L14.3333333,22.3333333 Z M18,18.3333333 C18.6666667,18.3333333 19,18 19.3333333,17.3333333 L20.3333333,15 L21.3333333,17.3333333 C21.6666667,17.6666667 22,18 22.6666667,18.3333333 L25,18.6666667 L23.3333333,20.3333333 C23,20.6666667 22.6666667,21.3333333 23,21.6666667 L23.3333333,24 L21,23.3333333 C20.6666667,23 20,23 19.3333333,23.3333333 L17,24.3333333 L17.3333333,22 C17.3333333,21.3333333 17.3333333,21 17,20.6666667 L15.3333333,19 L18,18.3333333 Z" id="Shape__8vkz6hnQ"></path><path d="M33,31.3333333 L33.3333333,30 L37.3333333,27 C38,26.6666667 38,25.6666667 38,25 L36.6666667,20.3333333 L38.3333333,15.6666667 C38.6666667,15 38.3333333,14.3333333 37.6666667,13.6666667 L33.3333333,10.6666667 L31.6666667,6 C31.3333333,5.33333333 30.6666667,5 30,5 L25,5 L21,2 C20.3333333,1.66666667 19.6666667,1.66666667 19,2 L15,5 L10.3333333,5 C9.66666667,5 9,5.33333333 8.66666667,6 L7,10.6666667 L3,13.6666667 C2.33333333,14.3333333 2.33333333,15 2.33333333,15.6666667 L4,20.3333333 L2.33333333,25 C2,25.6666667 2.33333333,26.3333333 3,27 L7,30 L8,33 L1.66666667,49.3333333 C1.33333333,50 1.66666667,50.6666667 2,51 C2.33333333,51.3333333 3,51.6666667 3.66666667,51.3333333 L11,49.3333333 L15.3333333,56 C15.6666667,56.3333333 16.3333333,56.6666667 16.6666667,56.6666667 C16.6666667,56.6666667 16.6666667,56.6666667 17,56.6666667 C17.6666667,56.6666667 18,56.3333333 18.3333333,55.6666667 L19.6666667,52.3333333 L21,57.3333333 C21,58 21.6666667,58.3333333 22.3333333,58.6666667 C22.3333333,58.6666667 22.6666667,58.6666667 22.6666667,58.6666667 C23,58.6666667 23.6666667,58.3333333 24,58 L29,52 L36,55 C36.6666667,55.3333333 37.3333333,55 37.6666667,54.6666667 C38,54.3333333 38.3333333,53.6666667 38.3333333,53 L33,31.3333333 Z M6,25 L7.33333333,21 C7.33333333,20.6666667 7.33333333,20.3333333 7.33333333,20 L6,15.6666667 L9.33333333,13.3333333 C9.66666667,13 10,12.6666667 10,12.3333333 L11.3333333,8.33333333 L15.6666667,8.33333333 C16,8.33333333 16.3333333,8.33333333 16.6666667,8 L20.3333333,5.33333333 L24,8 C24.3333333,8.33333333 24.6666667,8.33333333 25,8.33333333 L29.3333333,8.33333333 L30.6666667,12.3333333 C30.6666667,12.6666667 31,13 31.3333333,13 L35,15.6666667 L33.3333333,20 C33.3333333,20.3333333 33.3333333,20.6666667 33.3333333,21 L34.6666667,25 L31,27.6666667 C30.6666667,28 30.6666667,28 30.3333333,28.3333333 L29.6666667,30.6666667 C29.6666667,30.6666667 29.6666667,30.6666667 29.6666667,30.6666667 L29,32.3333333 L24.6666667,32.3333333 L24.6666667,32.3333333 C24.3333333,32.3333333 24,32.3333333 23.6666667,32.6666667 L20,35.3333333 L16.6666667,32.6666667 C16.3333333,32.3333333 16,32.3333333 15.6666667,32.3333333 L11.3333333,32.3333333 L10,28.3333333 C10,28 9.66666667,27.6666667 9.33333333,27.6666667 L6,25 Z M16.3333333,51.3333333 L13.3333333,46.3333333 C13,46 12.3333333,45.6666667 12,45.6666667 C12,45.6666667 11.6666667,45.6666667 11.6666667,45.6666667 L6.33333333,47.3333333 L10.6666667,35.6666667 L15.3333333,35.6666667 L19.3333333,38.6666667 C20,39 20.6666667,39 21.3333333,38.6666667 L21.3333333,38.6666667 L16.3333333,51.3333333 Z M29,48.3333333 C28.3333333,48 27.6666667,48.3333333 27,48.6666667 L23.3333333,53 L21.6666667,46.6666667 L25.6666667,35.6666667 L30,35.6666667 C30,35.6666667 30.3333333,35.6666667 30.3333333,35.6666667 L34,50.3333333 L29,48.3333333 Z" id="Shape__8vkz6hnQ"></path></g></g></g></g></svg>
