<?xml version="1.0" encoding="utf-8"?>
<!-- source: Taken from 500pix, who created this with Sketch. -->
<!DOCTYPE svg PUBLIC "-//W3C//DTD SVG 1.1//EN" "http://www.w3.org/Graphics/SVG/1.1/DTD/svg11.dtd">

<svg width="64px" height="64px" viewBox="0 0 64 64" version="1.1" xmlns="http://www.w3.org/2000/svg" xmlns:xlink="http://www.w3.org/1999/xlink"><title>DF40BCD3-069F-420F-9B64-E2AC97FF02FB@1.00x</title><desc>Taken from 500pix, who made it with sketchtool.</desc><g id="Main-Screens__RES9tixa" stroke="none" stroke-width="1" fill="none" fill-rule="evenodd"><g id="Desktop-HD-with-EC-Grid__RES9tixa" transform="translate(-962.000000, -778.000000)" fill="#222222" fill-rule="nonzero"><path class="inline_svg_icon__fill" d="M1024.11765,838.235294 L1018.47059,838.235294 L1018.47059,791.176471 C1018.47059,790.136876 1017.62783,789.294118 1016.58824,789.294118 C1015.54864,789.294118 1014.70588,790.136876 1014.70588,791.176471 L1014.70588,838.235294 L1010.94118,838.235294 L1010.94118,802.470588 C1010.94118,801.430993 1010.09842,800.588235 1009.05882,800.588235 C1008.01923,800.588235 1007.17647,801.430993 1007.17647,802.470588 L1007.17647,838.235294 L1003.41176,838.235294 L1003.41176,813.764706 C1003.41176,812.725111 1002.56901,811.882353 1001.52941,811.882353 C1000.48982,811.882353 999.647059,812.725111 999.647059,813.764706 L999.647059,838.235294 L995.882353,838.235294 L995.882353,810 C995.882353,808.960405 995.039595,808.117647 994,808.117647 C992.960405,808.117647 992.117647,808.960405 992.117647,810 L992.117647,838.235294 L988.352941,838.235294 L988.352941,821.294118 C988.352941,820.254523 987.510183,819.411765 986.470588,819.411765 C985.430993,819.411765 984.588235,820.254523 984.588235,821.294118 L984.588235,838.235294 L980.823529,838.235294 L980.823529,825.058824 C980.823529,824.019229 979.980771,823.176471 978.941176,823.176471 C977.901582,823.176471 977.058824,824.019229 977.058824,825.058824 L977.058824,838.235294 L973.294118,838.235294 L973.294118,817.529412 C973.294118,816.489817 972.45136,815.647059 971.411765,815.647059 C970.37217,815.647059 969.529412,816.489817 969.529412,817.529412 L969.529412,838.235294 L965.764706,838.235294 L965.764706,779.882353 C965.764706,778.842758 964.921948,778 963.882353,778 C962.842758,778 962,778.842758 962,779.882353 L962,840.117647 C962,841.157242 962.842758,842 963.882353,842 L1024.11765,842 C1025.15724,842 1026,841.157242 1026,840.117647 C1026,839.078052 1025.15724,838.235294 1024.11765,838.235294 Z" id="Stats_Icon_Desktop__RES9tixa"></path></g></g></svg>
