<?xml version="1.0" encoding="utf-8"?>
<!-- source: Taken from 500pix, who created this with Sketch. -->
<!DOCTYPE svg PUBLIC "-//W3C//DTD SVG 1.1//EN" "http://www.w3.org/Graphics/SVG/1.1/DTD/svg11.dtd">

<svg width="64px" height="64px" viewBox="0 0 64 64" version="1.1" xmlns="http://www.w3.org/2000/svg" xmlns:xlink="http://www.w3.org/1999/xlink">
  <defs>
    <polygon id="path-1__NWGVzKYl" points="1.91781908e-05 0 33.8511102 0 33.8511102 63.9995733 1.91781908e-05 63.9995733">
    </polygon>
  </defs>
  <g id="Page-1__NWGVzKYl" stroke="none" stroke-width="1" fill="none" fill-rule="evenodd">
    <g id="Licensing-Large-/-1.0.0---Colour__NWGVzKYl" transform="translate(-851.000000, -3178.000000)">
      <g id="Group-6__NWGVzKYl" transform="translate(851.000000, 3178.000000)">
        <path class="inline_svg_icon__fill" d="M56.26688,18.8603733 C53.6674133,21.45984 50.2370133,22.7835733 46.64128,22.7675733 L54.61568,14.7899733 C55.35168,14.05504 55.35168,12.8635733 54.61568,12.1275733 C53.8807467,11.39264 52.68928,11.39264 51.9543467,12.1275733 L43.98208,20.1019733 C43.97568,16.5169067 45.2866133,13.0779733 47.8871467,10.48064 C51.08928,7.27850667 55.55328,5.92490667 60.01408,6.73344 C60.83008,11.19424 59.47008,15.65824 56.26688,18.8603733 M63.4071467,4.67797333 C63.2343467,4.02410667 62.72448,3.51210667 62.06848,3.34037333 C56.0386133,1.74464 49.58208,3.46090667 45.2247467,7.81824 C40.9442133,12.0955733 39.23008,18.40064 40.6839467,24.34304 L40.6839467,49.3179733 C40.6839467,50.3579733 41.5266133,51.1995733 42.5666133,51.1995733 C43.60768,51.1995733 44.44928,50.3579733 44.44928,49.3179733 L44.44928,26.44864 C45.1639467,26.5361067 45.87968,26.58624 46.59328,26.58624 C51.1778133,26.58624 55.64928,24.8027733 58.92928,21.5227733 C63.2866133,17.16544 65.00288,10.7121067 63.4071467,4.67797333" id="Fill-1__NWGVzKYl" fill="#222222">
          <!-- id and fill look weird. That's probably our broken part. -->
        </path>
        <g id="Group-5__NWGVzKYl">
          <mask id="mask-2__NWGVzKYl" fill="white">
            <use xlink:href="#path-1__NWGVzKYl"></use>
          </mask>
        <g id="Clip-4__NWGVzKYl"></g>
      <path class="inline_svg_icon__fill" d="M9.98464,23.8833067 C4.80704,18.7057067 2.69610667,11.4289067 4.22890667,4.22997333 C11.4321067,2.68544 18.7099733,4.80704 23.8833067,9.98037333 C28.52544,14.62144 30.6769067,20.95104 29.9739733,27.39904 L16.8081067,14.7057067 C16.0657067,13.9921067 14.87104,14.0027733 14.1467733,14.7569067 C13.4267733,15.5035733 13.4481067,16.69504 14.1979733,17.4193067 L27.24224,29.9963733 C20.84224,30.65344 14.5841067,28.48384 9.98464,23.8833067 M26.5457067,7.31797333 C20.24704,1.02357333 10.9297067,-1.45856 2.18517333,0.846506667 C1.53024,1.01930667 1.02037333,1.53024 0.847573333,2.18517333 C-1.45962667,10.9147733 1.02357333,20.24704 7.32224,26.5457067 C12.0657067,31.2891733 18.5265067,33.86624 25.15584,33.86624 C26.5403733,33.86624 27.93024,33.7105067 29.3179733,33.4801067 L29.3179733,62.1179733 C29.3179733,63.1579733 30.16064,63.9995733 31.20064,63.9995733 C32.24064,63.9995733 33.0833067,63.1579733 33.0833067,62.1179733 L33.0833067,31.35744 C35.2465067,22.72064 32.7675733,13.5409067 26.5457067,7.31797333" id="Fill-3__NWGVzKYl" fill="#222222" mask="url(#mask-2__NWGVzKYl)">
      </path>
    </g>
  </g>
</g>
</g>
</svg>
