<svg width="62px" height="62px" viewBox="0 0 62 62" version="1.1" xmlns="http://www.w3.org/2000/svg" xmlns:xlink="http://www.w3.org/1999/xlink"><title>392C4BBD-3178-470D-8A07-596A0032EBC8@1.00x</title><desc>Taken from 500pix, who made it with sketchtool.</desc><defs><polygon id="path-1__Hu1bjt6m" points="0 8.87120543e-05 61.184 8.87120543e-05 61.184 61.3969778 0 61.3969778"></polygon></defs><g id="Main-Screens__Hu1bjt6m" stroke="none" stroke-width="1" fill="none" fill-rule="evenodd"><g id="Desktop-HD-with-EC-Grid__Hu1bjt6m" transform="translate(-512.000000, -782.000000)"><g id="Group-3__Hu1bjt6m" transform="translate(512.000000, 782.000000)"><mask id="mask-2__Hu1bjt6m" fill="white"><use xlink:href="#path-1__Hu1bjt6m"></use></mask><g id="Clip-2__Hu1bjt6m"></g><path class="inline_svg_icon__fill" d="M13.1562667,57.1054222 L4.29226667,48.2414222 L7.06204444,45.4716444 L10.8344889,49.2405333 C11.1793778,49.5889778 11.6344889,49.7632 12.0896,49.7632 C12.5447111,49.7632 12.9998222,49.5889778 13.3482667,49.2405333 C14.0416,48.5472 14.0416,47.4200889 13.3482667,46.7267556 L9.57582222,42.9578667 L12.0896,40.4405333 L13.3482667,41.6992 C13.6931556,42.0476444 14.1482667,42.2183111 14.6033778,42.2183111 C15.0584889,42.2183111 15.5136,42.0476444 15.8620444,41.6992 C16.5553778,41.0058667 16.5553778,39.8787556 15.8620444,39.1854222 L14.6033778,37.9267556 L17.1171556,35.4129778 L18.3793778,36.6716444 C18.7242667,37.0200889 19.1793778,37.1907556 19.6344889,37.1907556 C20.0896,37.1907556 20.5447111,37.0200889 20.8931556,36.6716444 C21.5864889,35.9783111 21.5864889,34.8512 20.8931556,34.1578667 L19.6309333,32.8992 L20.3918222,32.1418667 L29.2558222,41.0058667 L13.1562667,57.1054222 Z M15.4531556,17.1480889 L46.0487111,47.7365333 L43.5313778,50.2503111 L12.9393778,19.6618667 L15.4531556,17.1480889 Z M5.84604444,5.0272 C6.88071111,3.99253333 8.23893333,3.47697778 9.5936,3.47697778 C10.9518222,3.47697778 12.3100444,3.99253333 13.3447111,5.0272 L17.9491556,9.62453333 L10.4504889,17.1232 L5.84604444,12.5223111 C3.78026667,10.4529778 3.78026667,7.09297778 5.84604444,5.0272 L5.84604444,5.0272 Z M47.2896,5.24408889 L56.1536,14.1045333 L41.8247111,28.4369778 L35.3713778,21.9800889 C35.5918222,21.8912 35.7980444,21.7632 35.9758222,21.5854222 C36.6691556,20.8885333 36.6691556,19.7649778 35.9758222,19.0716444 L34.7171556,17.8129778 L37.2309333,15.2992 L38.4896,16.5578667 C38.8380444,16.9027556 39.2931556,17.0769778 39.7482667,17.0769778 C40.1998222,17.0769778 40.6549333,16.9027556 41.0033778,16.5578667 C41.6967111,15.8609778 41.6967111,14.7374222 41.0033778,14.0440889 L39.7482667,12.7854222 L42.2620444,10.2716444 L46.0309333,14.0440889 C46.3793778,14.3889778 46.8344889,14.5632 47.2896,14.5632 C47.7447111,14.5632 48.1962667,14.3889778 48.5447111,14.0440889 C49.2380444,13.3472 49.2380444,12.2236444 48.5447111,11.5303111 L44.7758222,7.75786667 L47.2896,5.24408889 Z M49.8140444,48.9987556 C49.8176,48.9952 49.8211556,48.9952 49.8211556,48.9952 C49.8211556,48.9952 49.8247111,48.9916444 49.8247111,48.9880889 L52.8789333,45.9338667 L54.6567111,50.7872 L51.6096,53.8307556 L46.7562667,52.0529778 L49.8140444,48.9987556 Z M29.1882667,20.8245333 C29.1918222,20.8245333 29.1918222,20.8280889 29.1918222,20.8280889 L29.1953778,20.8280889 L40.5660444,32.1987556 C40.5660444,32.2023111 40.5660444,32.2023111 40.5696,32.2058667 C40.5731556,32.2094222 40.5731556,32.2094222 40.5767111,32.2094222 L51.0762667,42.7089778 L48.5624889,45.2227556 L17.9704889,14.6343111 L20.4842667,12.1205333 L29.1882667,20.8245333 Z M61.0780444,57.9729778 L55.2611556,42.0974222 C55.2576,42.0867556 55.2469333,42.0796444 55.2398222,42.0689778 C55.1544889,41.8414222 55.0229333,41.6280889 54.8487111,41.4538667 L44.3420444,30.9507556 L59.9224889,15.3632 C60.2567111,15.0289778 60.4451556,14.5774222 60.4451556,14.1045333 C60.4451556,13.6316444 60.2567111,13.1800889 59.9224889,12.8494222 L48.5447111,1.4752 C47.8513778,0.778311111 46.7242667,0.778311111 46.0309333,1.4752 L30.4469333,17.0556444 L21.7393778,8.34808889 C21.7002667,8.31253333 21.6540444,8.29831111 21.6149333,8.26631111 L15.8584889,2.51342222 C12.5091556,-0.835911111 6.6816,-0.839466667 3.33226667,2.51342222 C-0.116622222,5.96231111 -0.116622222,11.5800889 3.33226667,15.0360889 L9.07448889,20.7712 C9.11004444,20.8209778 9.12782222,20.8778667 9.17048889,20.9169778 L17.8780444,29.6245333 L0.519822222,46.9827556 C-0.173511111,47.6796444 -0.173511111,48.8032 0.519822222,49.4965333 L11.8976,60.8778667 C12.2460444,61.2227556 12.7011556,61.3969778 13.1562667,61.3969778 C13.6113778,61.3969778 14.0664889,61.2227556 14.4149333,60.8778667 L31.7696,43.5196444 L42.2727111,54.0227556 C42.4576,54.2076444 42.6709333,54.3356444 42.8949333,54.4174222 C42.9056,54.4245333 42.9091556,54.4316444 42.9198222,54.4352 L58.7953778,60.2556444 C58.9944889,60.3267556 59.2007111,60.3623111 59.4069333,60.3623111 C59.8691556,60.3623111 60.3242667,60.1809778 60.6620444,59.8432 C61.1527111,59.3525333 61.3127111,58.6236444 61.0780444,57.9729778 L61.0780444,57.9729778 Z" id="Fill-1__Hu1bjt6m" fill="#222222" mask="url(#mask-2__Hu1bjt6m)"></path></g></g></g></svg>
