<?xml version="1.0" encoding="utf-8"?>
<!DOCTYPE svg PUBLIC "-//W3C//DTD SVG 1.1//EN" "http://www.w3.org/Graphics/SVG/1.1/DTD/svg11.dtd">

<!-- generated from: https://getwaves.io/ -->
<svg xmlns="http://www.w3.org/2000/svg" viewBox="0 0 1440 320">
  <path fill="#ffd700" fill-opacity="1" d="M0,32L48,69.3C96,107,192,181,288,197.3C384,213,480,171,576,133.3C672,96,768,64,864,53.3C960,43,1056,53,1152,90.7C1248,128,1344,192,1392,224L1440,256L1440,0L1392,0C1344,0,1248,0,1152,0C1056,0,960,0,864,0C768,0,672,0,576,0C480,0,384,0,288,0C192,0,96,0,48,0L0,0Z"></path>
</svg>
