<svg width="32" height="32" viewBox="0 0 32 32" fill="none" xmlns="http://www.w3.org/2000/svg">
<path fill-rule="evenodd" clip-rule="evenodd" d="M17.3206 0.570232C16.5912 -0.190077 15.4088 -0.190077 14.6794 0.570232L0.605129 15.2452C0.0995399 15.7288 -0.111013 16.4626 0.0567245 17.1563C0.224462 17.8501 0.743482 18.3921 1.40856 18.568C2.07364 18.7439 2.77769 18.5255 3.24232 17.9991L14.1322 6.64448V30.0524C14.1322 31.128 14.9684 32 16 32C17.0316 32 17.8678 31.128 17.8678 30.0524V6.64448L28.7577 17.9991C29.2223 18.5255 29.9264 18.7439 30.5914 18.568C31.2565 18.3921 31.7755 17.8501 31.9433 17.1563C32.111 16.4626 31.9005 15.7288 31.3949 15.2452L17.3206 0.570232Z" fill="#222222"/>
</svg>
